<svg xmlns="http://www.w3.org/2000/svg" width="50" height="37.002" viewBox="0 0 50 37.002">
  <g id="CDSS-icon" transform="translate(-301.121 68.589)">
    <g id="Group_407" data-name="Group 407">
      <path id="Path_1079" data-name="Path 1079" d="M324.8-40.055A11.838,11.838,0,0,0,312.96-51.893a11.838,11.838,0,0,0-11.839,11.838,11.782,11.782,0,0,0,2.4,7.14,74.716,74.716,0,0,0,17.8,1.245A11.8,11.8,0,0,0,324.8-40.055Z" fill="#e12b01"/>
      <circle id="Ellipse_19" data-name="Ellipse 19" cx="4.675" cy="4.675" r="4.675" transform="translate(308.285 -64.733)" fill="#e12b01"/>
    </g>
    <g id="Group_408" data-name="Group 408">
      <path id="Path_1080" data-name="Path 1080" d="M340.749-51.222A10.372,10.372,0,0,0,330.377-40.85a10.343,10.343,0,0,0,3.434,7.708,76.624,76.624,0,0,0,17.023-5.285,10.4,10.4,0,0,0,.287-2.423A10.372,10.372,0,0,0,340.749-51.222Z" fill="#f4d85f"/>
      <circle id="Ellipse_20" data-name="Ellipse 20" cx="4.096" cy="4.096" r="4.096" transform="translate(336.654 -62.471)" fill="#f4d85f"/>
    </g>
    <g id="Group_409" data-name="Group 409">
      <path id="Path_1081" data-name="Path 1081" d="M327.474-53.038A14.339,14.339,0,0,0,313.135-38.7,14.267,14.267,0,0,0,315-31.631a84.637,84.637,0,0,0,13.325-.639,84.556,84.556,0,0,0,12.987-2.671,14.331,14.331,0,0,0,.5-3.758A14.339,14.339,0,0,0,327.474-53.038Z" fill="#56a8a2" opacity="0.7"/>
      <circle id="Ellipse_21" data-name="Ellipse 21" cx="5.662" cy="5.662" r="5.662" transform="translate(321.812 -68.589)" fill="#56a8a2" opacity="0.7"/>
    </g>
  </g>
</svg>
