<svg id="DCAS-logo" xmlns="http://www.w3.org/2000/svg" width="125.486" height="28.001" viewBox="0 0 125.486 28.001">
  <path id="Path_1082" data-name="Path 1082" d="M77.6,0H65.67V20.886s10.607.16,13.095,0,3.983-4.311,3.983-4.311V4.64C82.244.992,77.6,0,77.6,0Zm-.961,15.582H71.775V5.136h4.869Z" transform="translate(-15.555 0)" fill="#10497d"/>
  <path id="Path_1083" data-name="Path 1083" d="M98.4,5.448H106.8V0H97.58A7.929,7.929,0,0,0,96.7.046c-3.991.412-4.579,3.587-4.579,3.587s-.168,3.281-.145,6.868.145,6.868.145,6.868.572,3.174,4.579,3.587A7.928,7.928,0,0,0,97.58,21h9.241V15.514H98.427V5.448Z" transform="translate(-21.787 0)" fill="#10497d"/>
  <path id="Path_1084" data-name="Path 1084" d="M129.757,0H119.539L115.38,10.218V20.955h6.059V16.277h6.1v4.678h6.234V10.477ZM121.9,11.217l1.526-5.342H125.5l1.694,5.342Z" transform="translate(-27.332 0)" fill="#10497d"/>
  <path id="Path_1085" data-name="Path 1085" d="M159.452,5.074V0H148.471s-5.38-.168-5.075,6.234V9.645s.252,2.991,6.158,3.327h.954a5.342,5.342,0,0,1,2.327.473h.046v1.816h-9.493v5.655h11.4s4.579-.328,4.663-4.655V11.446s-.763-4.4-10.065-3.9V5.074Z" transform="translate(-33.966 0.001)" fill="#10497d"/>
  <path id="Path_1086" data-name="Path 1086" d="M51.287,15.2c-1.526,1.091-2.846,2.518-4.281,3.724-.908.763-1.717,1.77-1.213,0s2.076-2.984,1.824-5.029-1.656-2.289-3.2-1.244-4.922,7.1-7.082,5.448c-1.106-.847.259-2.037.839-2.831,1.335-1.839,2.205-4.83-1.16-4.479-2.648.275-4.678,3.663-6.5,5.342-.969.893-3.419,3.052-4.731,1.419-.946-1.168.763-3.335.107-4.464-1.778-2.884-6.372,3.869-8.02,3.968-1.206.076.878-3.732.565-5.006-.527-2.152-2.579-1.824-4.182-.946a23.816,23.816,0,0,0-2.968,2.19c-1,.763-2.678,2.717-3.9,3-1.488.351-.443-1.122-.046-2.236.473-1.343.984-2.587-.916-2.839C2.288,10.627-.092,16.557,0,19.716c.122,4.2,3.434,3.815,5.845,1.48.8-.672,5.883-5.5,6.379-4.113.916,2.564-4.693,4.769-1.023,7.1,2.518.961,6.524-3.777,8.394-5.128,2.106-1.526,1.732-.641,2.076,1.061.366,1.831,1.839,2.564,3.609,2.488a4.746,4.746,0,0,0,3.167-1.374l.076-.084c.763-.61,1.915-1.442,2.19-1.366.58.679.542,2.442,1.313,3.121a3.7,3.7,0,0,0,3.487.763c1.755-.259,4.579-2.93,4.579-2.93l.122-.122h.053c.084.137.076.45-.061,1.038-.481,2.022-2.526,3.541-3.052,5.51-.443,1.648.1,3.739,1.793,3.228,1.419-.42,4.067-3.915,5.082-4.884l8.547-8.173C54.438,15.557,53.889,13.336,51.287,15.2Z" transform="translate(0.003 -2.469)" fill="#66f3e0"/>
  <path id="Path_1087" data-name="Path 1087" d="M14.74,28.517l-.114-.076a1.183,1.183,0,0,1-.176-.061Z" transform="translate(-3.421 -6.723)" fill="#66f3e0"/>
</svg>
